<?xml version="1.0" standalone="no"?>
<svg viewBox="0 0 200 200" xmlns="http://www.w3.org/2000/svg">
  <path fill="#FFEF9F" d="M18,-37.4C22.7,-28.4,25.6,-22.4,26.6,-16.7C27.7,-10.9,26.9,-5.5,23.3,-2.1C19.8,1.3,13.3,2.6,12.4,8.7C11.5,14.7,16.2,25.4,15.1,33.9C13.9,42.3,7,48.4,-0.6,49.5C-8.2,50.6,-16.4,46.6,-28.5,44.5C-40.6,42.4,-56.6,42.1,-53.8,35C-50.9,27.9,-29.2,14,-28.1,0.6C-27,-12.7,-46.5,-25.4,-53.3,-39.2C-60,-53.1,-54,-68,-42.9,-73.4C-31.9,-78.8,-16,-74.6,-4.7,-66.5C6.6,-58.4,13.3,-46.4,18,-37.4Z" transform="translate(100 100)" />
</svg>
